<svg width="1024" height="1024" viewBox="0 0 1024 1024" fill="none" xmlns="http://www.w3.org/2000/svg">
<g clip-path="url(#clip0_1_18)">
<path d="M489 863.84C474.26 866.6 375.05 865.61 364.69 862.6C355.37 859.89 349.74 854.71 346.77 846.12C345.79 843.28 345.47 795.87 345.25 626.35L344.97 410.19L353.23 403.7C365.6 393.99 379.91 378.82 386.9 368C393.94 357.12 397.99 347.31 402.13 331.15C403.73 324.9 405.47 318.99 406 318.01C407.88 314.49 413.07 311.13 418.3 310.04C422.05 309.26 459.03 309.02 544.06 309.23L664.5 309.52L675.24 311.79C710.03 319.17 740.51 335.93 764 360.62C787.56 385.38 802.23 415.59 809.14 453.55C812.07 469.65 812.36 506.2 809.68 521.46C803.48 556.72 791.95 583.79 771.84 610.22C743.34 647.67 694.7 677.81 646.5 687.9C625.34 692.33 615.02 693.14 572.78 693.71L532.07 694.25L531.5 823.65L527.12 832.49C519.03 848.82 504.24 860.98 489 863.84ZM396.64 813.22C396.9 813.65 419.5 814 446.86 814C484.21 814 496.9 813.7 497.8 812.8C498.71 811.89 499 792.2 499 730.3V649H564.95C636.27 649 644.01 648.57 664.34 643.45C686.27 637.93 709.89 626.1 725.31 612.9C730.5 608.45 745.48 593.44 748 590.15C749.38 588.36 751.52 585.68 752.76 584.19C754.01 582.71 755.58 580.26 756.26 578.75C756.93 577.24 757.79 576 758.17 576C758.54 576 759.36 574.42 760 572.5C760.64 570.58 761.57 569 762.08 569C762.58 569 763 568.32 763 567.48C763 566.64 764.04 564.28 765.31 562.23C770.72 553.48 776.26 536.55 779.06 520.17C781.29 507.11 781.74 477.5 779.91 464.34C776.26 438.04 764.01 408.34 749.93 391.62C744.34 384.99 732.3 373 731.23 373C730.59 373 729.59 372.1 729 371C728.41 369.9 727.32 369 726.57 369C725.83 369 724.95 368.33 724.64 367.5C724.32 366.67 723.37 366 722.53 366C721.69 366 721 365.55 721 365C721 364.45 720.53 364 719.96 364C719.39 364 717.97 363.12 716.81 362.03C715.65 360.95 714.32 360.31 713.85 360.59C713.38 360.88 713 360.69 713 360.17C713 359.64 711.15 358.48 708.89 357.57C706.64 356.67 704.13 355.27 703.32 354.47C702.01 353.15 699.87 352.55 697.75 352.88C697.34 352.95 697 352.52 697 351.94C697 351.36 696.55 351.16 696 351.5C695.45 351.84 695 351.59 695 350.95C695 350.31 694.33 350.05 693.5 350.36C692.67 350.68 692 350.52 692 350C692 349.48 691.33 349.32 690.5 349.64C689.67 349.95 689 349.73 689 349.14C689 348.55 688.33 348.32 687.5 348.64C686.67 348.95 686 348.73 686 348.14C686 347.55 685.33 347.32 684.5 347.64C683.67 347.95 683 347.73 683 347.14C683 346.55 682.33 346.32 681.5 346.64C680.67 346.95 680 346.69 680 346.04C680 345.32 679.22 345.11 678 345.5C676.8 345.88 676 345.68 676 345C676 344.32 675.2 344.12 674 344.5C672.77 344.89 672 344.68 672 343.96C672 343.2 671.1 343.01 669.5 343.41C668.01 343.79 667 343.61 667 342.97C667 342.3 665.72 342.15 663.5 342.57C661.24 342.99 660 342.84 660 342.13C660 341.41 658.46 341.25 655.5 341.66C653.03 341.99 651 341.87 651 341.39C651 340.47 431.38 340.64 427.19 341.56C425.43 341.95 425.03 342.53 425.51 344.03C425.86 345.12 425.67 346 425.1 346C424.53 346 424.32 346.67 424.64 347.5C424.96 348.33 424.67 349 424 349C423.33 349 423.04 349.67 423.36 350.5C423.68 351.33 423.59 352 423.17 352C422.75 352 421.65 354.48 420.72 357.51C417.15 369.07 408.03 385.26 399.36 395.43L396 399.36L396.08 605.9C396.12 719.5 396.37 812.79 396.64 813.22ZM303 400.7C291.09 404.3 266.77 404.93 254 401.98C228.99 396.18 206.94 382.44 192.72 363.8C171.82 336.41 165.07 301.66 174.1 268C175.21 263.88 178.55 255.54 181.52 249.48C196.1 219.77 222.26 199.59 255 192.79C267.27 190.24 290.55 190.72 301.5 193.75C366.18 211.67 398.2 284.22 368.51 345.59C355.5 372.48 332.58 391.76 303 400.7ZM612 563C612 564.02 502.77 564.35 500.25 563.34C499.27 562.94 499 548.01 499 493.38V423.92L627.5 424.54L634.76 427.21C649.41 432.61 662.58 444.18 669.28 457.53C675.01 468.94 676.5 476.25 676.5 493C676.5 506.4 676.19 509.52 674.18 516C668.93 532.93 656.54 547.79 641.65 554.97C632.15 559.56 623.53 562 616.79 562C614.16 562 612 562.45 612 563ZM263.5 376.53C278.59 378.97 294.12 376.55 308.5 369.54C339.17 354.59 356.38 323.04 352.87 288.24C347.86 238.53 297.19 205.45 250.45 221.35C224.18 230.28 204.36 252.18 197.97 279.34C195.03 291.81 195.62 310.02 199.35 321.5C208.97 351.12 232.8 371.56 263.5 376.53ZM688.13 280.42C673.51 285.43 671.5 285.74 668.29 283.49C663.26 279.97 658.18 258.45 657.32 237C654.74 172.81 689.35 128.27 755.24 110.98C768.73 107.44 770.46 107.87 773.31 115.5C781.08 136.31 781.97 168.1 775.49 193.63C768.92 219.53 749.26 247.28 726.87 262.25C716.05 269.49 705.15 274.6 688.13 280.42ZM637.08 289.42C634.22 292.46 630.85 292.61 616 290.37C587.38 286.03 568.24 278.53 550 264.49C533.42 251.73 516.79 226.54 510.57 204.76C506.16 189.32 504.7 175.67 505.32 155.5C505.63 145.6 506.18 136.25 506.56 134.71C507.57 130.62 511.97 128.68 518.35 129.51C543.78 132.82 570.35 142.94 587.91 156.02C598.29 163.74 612.4 178.93 618.85 189.32C633.8 213.4 640.55 239.7 639.85 271.08C639.52 286.15 639.39 286.95 637.08 289.42ZM532 465.84V535H566.36C585.26 535 602.94 534.58 605.65 534.07C620.17 531.31 631.15 523.51 635.04 513.2C641.14 497.04 632.79 475.65 617.73 468.87C612.56 466.55 612.01 466.52 572.25 466.18L532 465.84ZM694.21 252.25C693.55 253.57 694.88 253.08 702.77 249.11C729.1 235.87 748.32 208.9 754.62 176.31C756.44 166.87 757.08 144.22 755.7 137.7C755.39 136.24 755.2 135.24 754.6 134.79C753.35 133.85 750.31 135.28 740.62 139.86L740 140.15C725.32 147.08 717.07 152.89 705.45 164.48C697.08 172.82 694.69 175.92 691.22 183C684.15 197.39 680.92 215.23 682.51 231.07C683.1 236.92 683.44 237.96 684.29 236.41C691.37 223.48 731 168.71 731 171.85C731 172.4 728.59 178.84 725.65 186.17C721.13 197.42 716.44 207.22 700.86 238C699.89 239.93 698.08 243.75 696.84 246.5C695.6 249.25 694.42 251.84 694.21 252.25ZM591.5 259.1C595.9 260.64 599.81 261.91 600.2 261.95C601.04 262.01 595.17 251.56 588.16 240.5C573.99 218.14 558.23 190 559.87 190C560.44 190 567.71 196.62 576.04 204.7C589.07 217.36 602.49 232.8 610.9 244.81C612.18 246.63 613.38 247.96 613.57 247.76C613.77 247.57 613.09 243.38 612.07 238.45C604.23 200.61 579.58 173.29 539.99 158.54L539.39 158.32C532.2 155.64 529.18 154.52 527.91 155.55C527 156.29 527 158.16 527 161.38V161.75C527.01 177.62 532.42 198.65 540.53 214.4C552.43 237.51 567.54 250.76 591.5 259.1ZM867.55 469.55C866.2 470.9 864.28 471.98 863.3 471.96C860.98 471.91 855.42 469.5 854.62 468.19C854.28 467.64 853.11 461.97 852.02 455.59C847.67 430.2 839.77 405.56 828.48 382.2C822.45 369.73 821.25 366.48 821.98 364.56C823.15 361.46 826.78 359 830.15 359C835.16 359 838.96 363.64 846.12 378.49C860.84 409 869.99 440.17 870 459.8C870 466.21 869.7 467.39 867.55 469.55ZM856.85 563.47C851.53 567.95 844.7 566.03 843.72 559.78C843.43 557.93 844.22 552.54 845.53 547.41C846.81 542.41 849.04 531.2 850.49 522.49C851.93 513.78 853.55 505.84 854.09 504.83C855.78 501.68 862.52 502.36 866.22 506.07L869.3 509.14L868.65 519.32C868.03 529.2 864.62 546.61 861.43 556.22C860.54 558.88 858.54 562.05 856.85 563.47ZM812.08 338.08C807.34 342.81 803.66 341.7 794.8 332.85C791.85 329.91 786.02 324.92 781.83 321.77C773.49 315.5 771.34 311.96 773.37 307.87C775 304.62 779.42 302.67 783.47 303.43C788.41 304.35 797.84 310.89 806.91 319.67C814.25 326.78 815 327.86 815 331.33C815 334.22 814.29 335.87 812.08 338.08Z" fill="#06272A"/>
<path d="M396.64 813.22C396.37 812.79 396.12 719.5 396.08 605.9L396 400.58L396.24 524.43L396.49 649.5L396.99 537C397.27 475.12 397.79 425.4 398.13 426.5C398.57 427.89 398.8 427.35 398.88 424.75C398.95 422.69 399.26 421 399.57 421C401.06 421 402.75 423.89 402.75 426.43C402.75 428.41 403.69 429.99 405.88 431.71C407.61 433.06 408.76 434.57 408.45 435.08C408.14 435.59 408.41 436 409.06 436C409.7 436 410.02 436.81 409.76 437.81C409.38 439.27 409.92 439.63 412.67 439.71C416.21 439.81 419.35 441.63 418.46 443.06C417.7 444.3 421.42 446 424.87 446C427.5 446 427.81 446.3 427.43 448.44C427.18 449.78 427.44 451.15 427.99 451.5C428.55 451.84 429 451.42 429 450.56C429 448.59 430.31 448.59 434.08 450.54C436.03 451.55 438.23 451.86 440.46 451.44C444.37 450.71 447.04 451.72 444.86 453.11C443.86 453.74 444.08 453.97 445.69 453.98C446.9 453.99 448.2 454.52 448.6 455.15C449.07 455.92 448.87 456.04 448 455.5C447.15 454.98 446.93 455.08 447.38 455.8C447.76 456.41 448.72 456.66 449.53 456.35C450.33 456.04 450.68 455.28 450.3 454.65C449.84 453.87 450.1 453.89 451.11 454.71C451.93 455.37 453.52 455.68 454.65 455.38C456.22 454.97 456.98 455.54 457.93 457.82C459.07 460.58 464 463.04 464 460.85C464 460.36 465.31 460.07 466.9 460.19C468.5 460.31 470.5 459.83 471.36 459.12C473.01 457.75 475.43 458.49 474.46 460.07C474.14 460.58 474.75 461 475.82 461C478.08 461 480.45 463.47 479.56 464.9C479.23 465.44 479.87 465.81 480.98 465.73C482.37 465.62 483 464.87 483 463.29C483 461.37 483.53 461 486.3 461C488.11 461 490.12 460.48 490.76 459.84C492.97 457.63 494.97 460.76 494.93 466.36C494.85 475.05 495.05 476.91 496.09 477.56C496.64 477.9 497.14 482.08 497.2 486.84C497.26 491.6 497.59 510.58 497.93 529C498.46 557.53 498.59 552.21 498.78 493.21L499 423.92V493.38C499 548.01 499.27 562.94 500.25 563.34C502.77 564.35 612 564.02 612 563C612 562.45 614.16 562 616.79 562C623.53 562 632.15 559.56 641.65 554.97C653.89 549.06 664.45 537.97 670.73 524.8C665.99 535.24 658.91 543.82 649.52 550.52C641.53 556.23 636.01 558.65 625.72 560.97C621.2 562 618.64 562.87 620.04 562.92C624.34 563.06 634.15 560.14 641.59 556.51C650.84 551.99 658.05 546.17 663.84 538.52C666.41 535.12 669.08 532.53 669.76 532.75C670.44 532.98 671 532.65 671 532.02C671 531.4 670.55 531.16 670 531.5C668.14 532.65 668.98 530.45 670.95 529.04C672.02 528.27 672.69 527.3 672.43 526.89C672.18 526.48 672.82 523.98 673.86 521.32C674.9 518.67 676.06 514.68 676.43 512.46C676.94 509.43 677.59 508.38 679.05 508.27C681.02 508.12 681.35 508.82 681.06 512.59C680.97 513.73 681.59 515.25 682.44 515.95C684.19 517.4 684.7 516.61 685.21 511.65C685.5 508.85 685.53 508.84 687.57 510.65C688.71 511.67 689.93 513.29 690.29 514.25C690.99 516.13 694 516.69 694 514.94C694 514.36 693.55 514.16 693 514.5C691.42 515.48 691.84 513.38 693.5 512C694.7 511.01 695.3 511.01 696.5 512C697.7 513 698.33 512.97 699.66 511.87C700.97 510.8 701.42 510.77 701.75 511.76C701.98 512.45 702.55 512.78 703.01 512.49C703.48 512.21 704.15 512.9 704.51 514.04C705.02 515.63 705.48 515.85 706.5 515C707.54 514.14 708.14 514.51 709.17 516.67C710.17 518.76 711.32 519.52 713.81 519.72C715.79 519.88 716.86 519.59 716.5 518.99C716.16 518.45 716.36 518 716.94 518C717.52 518 718 518.89 718 519.97C718 521.31 718.48 521.75 719.5 521.36C720.33 521.05 721 521.25 721 521.81C721 522.37 720.44 523.03 719.75 523.28C719.06 523.53 718.84 524.1 719.27 524.55C719.69 525 720.5 524.9 721.07 524.33C721.64 523.76 723.24 523.51 724.63 523.78C726.72 524.18 727.05 524.67 726.55 526.65C725.78 529.72 727.74 533.66 729.27 532.13C729.9 531.5 730.8 531.41 731.43 531.92C732.02 532.4 734.89 532.95 737.8 533.15C742.45 533.46 743.05 533.28 742.65 531.75C742.08 529.59 742.67 529.53 744.68 531.54C746.05 532.91 746.48 532.92 748.5 531.59C751.29 529.76 752 530.38 752 534.67C752 538.36 754.19 539.26 755.89 536.25C756.8 534.63 757.02 534.66 758.97 536.75C761.43 539.37 762.83 539.6 763.64 537.5C763.95 536.67 765.07 536 766.11 536C767.51 536 768 536.71 767.98 538.75C767.97 541.3 764.67 558.26 763.42 562.25C763.11 563.21 763.27 564 763.77 564C763.99 564 764.23 563.87 764.5 563.63C763.63 565.26 763 566.83 763 567.48C763 568.32 762.58 569 762.08 569C761.57 569 760.64 570.58 760 572.5C759.36 574.42 758.54 576 758.17 576C757.79 576 756.93 577.24 756.26 578.75C755.58 580.26 754.01 582.71 752.76 584.19C751.52 585.68 749.38 588.36 748 590.15C745.48 593.44 730.5 608.45 725.31 612.9C709.89 626.1 686.27 637.93 664.34 643.45C644.01 648.57 636.27 649 564.95 649H499V730.3C499 792.2 498.71 811.89 497.8 812.8C496.9 813.7 484.21 814 446.86 814C419.5 814 396.9 813.65 396.64 813.22ZM263.5 376.53C232.8 371.56 208.97 351.12 199.35 321.5C195.62 310.02 195.03 291.81 197.97 279.34C204.36 252.18 224.18 230.28 250.45 221.35C297.19 205.45 347.86 238.53 352.87 288.24C356.38 323.04 339.17 354.59 308.5 369.54C294.12 376.55 278.59 378.97 263.5 376.53ZM267.2 357.8C267.93 358.53 271.46 359 276.16 359C285.17 359 285.79 358.44 286.71 349.49L287.26 344.14L293.38 341.13C296.75 339.47 300.4 337.26 301.5 336.2C305.23 332.63 307.84 329.17 307.25 328.59C306.93 328.26 307.22 328 307.89 328C308.57 328 308.84 327.55 308.5 327C308.16 326.45 308.26 326 308.73 326C309.67 326 309.91 324.3 310.26 315.5C310.39 312.2 310.14 309.23 309.7 308.91C309.26 308.59 308.83 307.35 308.74 306.16C308.65 304.97 308.15 304 307.62 304C307.1 304 306.97 303.69 307.35 303.32C308.28 302.38 300.53 295.31 296.09 293.05C294.09 292.03 287.51 289.76 281.48 288.01C270.08 284.7 264.63 282.07 263.6 279.4C261.5 273.94 266.38 268 272.95 268C277.87 268 286.97 271.05 290.63 273.92C292.08 275.06 293.81 276 294.48 276C295.14 276 298.43 273.32 301.78 270.06L307.88 264.11L305.74 261.4C303.69 258.79 290.65 252 287.69 252C286.14 252 285 247.9 285 242.35C285 239.57 284.5 238.76 282.25 237.88C279.46 236.79 268.13 237.18 266.1 238.44C265.5 238.81 265 241.7 265 244.85V250.58L259.09 253.3C251.73 256.67 244.8 264.06 243.02 270.42C239.75 282.1 244.14 294.03 253.49 298.9C256.24 300.33 258.71 301.73 258.99 302C259.27 302.27 259.95 302.56 260.5 302.64C263.54 303.06 280.05 308.49 283.22 310.11C289.98 313.56 291.14 320.03 285.79 324.53C282.76 327.08 282.12 327.2 274.49 326.8C267.22 326.42 265.54 325.92 257.82 321.81C253.09 319.3 248.81 317.52 248.29 317.87C246.48 319.09 239 329.93 239 331.33C239 333.1 240.1 333.96 247 337.6C250.02 339.2 252.83 340.95 253.23 341.5C253.64 342.05 253.98 342.14 253.98 341.69C253.99 341.25 254.56 341.23 255.25 341.67C255.94 342.1 257.61 342.6 258.98 342.79C260.34 342.98 262.02 343.6 262.73 344.19C263.43 344.77 264.01 344.85 264.02 344.37C264.02 343.89 264.47 344.17 265 345C265.53 345.83 265.98 348.77 265.98 351.55C265.99 354.33 266.54 357.14 267.2 357.8ZM597 258.42C597 261.23 576.06 252.03 568.95 246.1L565.65 243.35L567.83 241.17C569.02 239.98 569.66 238.97 569.25 238.93C568.84 238.88 567.49 238.66 566.25 238.43C564.2 238.05 563.5 238.91 563.9 241.29C564.14 242.77 560.05 239.97 558.95 237.91C558.14 236.4 558.18 235.49 559.09 234.39C560.06 233.22 560.05 232.67 559.01 231.71C557.99 230.76 557.86 230.77 558.41 231.75C558.8 232.44 558.73 233 558.26 233C557.79 233 556.79 232.44 556.05 231.75C555.15 230.91 554.92 230.88 555.37 231.68C555.73 232.33 555.46 233.19 554.77 233.59C554.07 233.99 553.85 233.94 554.27 233.48C554.69 233.01 553.58 231.14 551.81 229.31C548.83 226.23 548.71 225.86 550.22 224.35C551.73 222.84 551.83 222.9 551.58 225.21C551.34 227.37 551.72 227.72 554.37 227.79C556.06 227.84 557.99 227.43 558.65 226.87C560.23 225.56 563.31 230.04 562.42 232.36C561.7 234.23 563.21 234.5 566.03 232.98C567.28 232.31 567.7 231.38 567.27 230.23C566.65 228.6 566.71 228.6 568.38 230.25C570.72 232.57 570.93 232.5 572.16 228.97C573.03 226.49 573.48 226.15 574.65 227.13C575.53 227.86 575.73 228.67 575.16 229.24C573.83 230.57 574.96 234 576.72 234C577.61 234 577.99 233.42 577.66 232.55C577.27 231.53 577.58 231.29 578.71 231.72C579.91 232.18 580.11 231.98 579.47 230.92C578.74 229.71 578.86 229.7 580.31 230.87C581.24 231.63 582 232.62 582 233.08C582 233.91 586.04 240.39 588.03 242.75C588.6 243.44 588.72 244.01 588.29 244.02C587.86 244.02 588.01 244.36 588.64 244.77C589.77 245.49 597 257.3 597 258.42ZM700.43 248.43C697.73 251.13 696.91 250.16 698.57 246.25C699.45 244.19 700.62 241.38 701.16 240C701.7 238.63 703.21 236.1 704.53 234.38C705.84 232.66 706.6 230.87 706.21 230.41C705.82 229.94 706.37 230.23 707.44 231.03C708.97 232.19 709.21 232.21 708.55 231.12C707.98 230.16 708.15 229.89 709.11 230.22C709.87 230.49 710.36 231.49 710.18 232.45C710 233.49 710.3 233.93 710.93 233.54C711.52 233.18 712 233.33 712 233.87C712 234.41 713.42 234.67 715.16 234.45L718.32 234.05L715.47 237.03C713.91 238.66 712.99 240 713.44 240C713.88 240 713.71 240.64 713.06 241.43C711.71 243.05 702 248.33 702 247.44C702 247.12 701.29 247.56 700.43 248.43ZM719.28 236.43C717.2 238.36 715.05 239.95 714.5 239.96C713.95 239.96 715.3 238.41 717.5 236.51L721.5 233.04L717.5 233.48C714.1 233.85 713.75 233.73 715.18 232.65C716.11 231.95 717.16 230.2 717.52 228.76C718.13 226.34 721 223.99 721 225.91C721 226.38 722.08 226.97 723.41 227.23C725.13 227.56 725.67 227.31 725.3 226.34C725.02 225.6 725.28 225 725.89 225C726.5 225 727.01 225.56 727.02 226.25C727.03 227.08 727.35 227 728 226C728.53 225.18 728.96 224.95 728.95 225.5C728.92 227.38 724.01 232.13 722.84 231.4C722.15 230.97 721.96 231.13 722.38 231.8C722.76 232.42 721.38 234.48 719.28 236.43ZM713.05 227.91C711.23 231.3 709.03 230.43 709.49 226.5C709.82 223.64 711.07 221 712.09 221C713.58 221 714.23 225.7 713.05 227.91ZM719.83 531.3C721.16 532.9 725 532.97 725 531.4C725 530.76 723.87 529.49 722.48 528.58C720.23 527.11 719.9 527.09 719.37 528.48C719.04 529.33 719.25 530.6 719.83 531.3ZM456.74 465C458.3 466.83 458.48 466.84 460.04 465.22C461.59 463.61 461.52 463.46 459.1 462.93C455.49 462.13 454.8 462.74 456.74 465ZM591.5 259.1C573.1 252.7 559.92 243.4 549.4 228.95C558.92 241.4 572.39 251.76 585.3 256.52C589.26 257.98 594.08 259.79 596 260.54C596.9 260.89 597.64 261.17 598.25 261.38C596.61 260.85 594.14 260.03 591.5 259.1ZM483.95 458.55C483.25 459.41 481.8 460.57 480.74 461.14C479.14 461.99 478.88 461.86 479.2 460.33C479.41 459.32 480.35 458.56 481.29 458.64C482.23 458.72 483 458.38 483 457.89C483 457.4 483.51 457 484.12 457C484.88 457 484.83 457.5 483.95 458.55ZM716.08 240.82C721.43 236.33 730.55 227.01 735.41 221.07C729.85 228.66 723.35 235.32 716.08 240.82ZM676.11 506.93C676.42 503.69 676.5 499.59 676.5 493C676.5 485.51 676.2 479.9 675.36 474.97C677.17 484.4 677.48 497.32 676.11 506.93ZM743.25 538.34C743.94 538.62 744.58 538.88 744.69 538.92C744.79 538.96 744.81 538.15 744.73 537.11C744.65 536.01 744.05 535.43 743.3 535.72C741.65 536.35 741.63 537.68 743.25 538.34ZM744 527.5C744 528.33 743.4 529 742.67 529C741.93 529 741.33 528.33 741.33 527.5C741.33 526.67 741.93 526 742.67 526C743.4 526 744 526.67 744 527.5ZM423 448.5C423 449.33 423.6 450 424.33 450C425.07 450 425.67 449.33 425.67 448.5C425.67 447.67 425.07 447 424.33 447C423.6 447 423 447.67 423 448.5ZM695.61 249.22C695.99 248.39 696.41 247.45 696.84 246.5C698.08 243.75 699.89 239.93 700.86 238C706.21 227.43 710.28 219.34 713.49 212.81C711.4 217.21 709.25 221.63 707.13 225.88C702.18 235.83 697.84 244.61 695.61 249.22ZM404.19 438.92C403.99 439.52 404.58 440 405.5 440C406.42 440 407.01 439.52 406.81 438.92C406.61 438.33 406.02 437.85 405.5 437.85C404.98 437.85 404.39 438.33 404.19 438.92ZM694 508.94C694 509.46 693.55 510.16 693 510.5C692.45 510.84 692 510.42 692 509.56C692 508.7 692.45 508 693 508C693.55 508 694 508.42 694 508.94ZM420.5 439C420.84 439.55 420.42 440 419.56 440C418.7 440 418 439.55 418 439C418 438.45 418.42 438 418.94 438C419.46 438 420.16 438.45 420.5 439ZM769.48 553.97C773.08 544.79 777.15 531.09 778.98 520.61C776.89 532.62 773.35 544.89 769.48 553.97ZM660.71 445.04C653.72 437.21 644.57 430.83 634.76 427.21C645.15 431.04 653.86 437.05 660.71 445.04ZM742.82 209.38C748.17 199.22 752.51 187.18 754.62 176.31C752.31 188.22 748.29 199.37 742.82 209.38ZM697.5 251.71C701.37 249.77 708.11 246.08 711.95 243.75C709 245.73 705.94 247.52 702.77 249.11C700.51 250.25 698.79 251.1 697.5 251.71ZM598.65 258.19C597.38 256.14 596.03 253.82 595.65 253C595.26 252.18 592.37 247.36 589.22 242.29C587.98 240.29 586.75 238.3 585.54 236.33C586.42 237.74 587.29 239.13 588.16 240.5C592.57 247.46 596.53 254.18 598.65 258.19ZM726.07 185.11C728.82 178.23 731 172.37 731 171.85C731 173.01 729.09 178.03 726.07 185.11ZM539.46 212.26C533.92 200.86 529.79 187.08 527.99 174.55C529.8 187.04 533.95 200.61 539.46 212.26ZM566.85 204.64C561.85 195.69 559.08 190 559.87 190C559.11 190 562.06 195.99 566.85 204.64ZM599.06 261.63C599.72 261.81 600.11 261.83 600.25 261.65C600.3 261.85 600.28 261.95 600.2 261.95C600.09 261.94 599.68 261.82 599.06 261.63Z" fill="#1F9560"/>
<path d="M769.48 553.97C768.11 557.17 766.71 559.97 765.31 562.23C765.03 562.69 764.75 563.16 764.5 563.63C764.23 563.87 763.99 564 763.77 564C763.27 564 763.11 563.21 763.42 562.25C764.67 558.26 767.97 541.3 767.98 538.75C768 536.71 767.51 536 766.11 536C765.07 536 763.95 536.67 763.64 537.5C762.83 539.6 761.43 539.37 758.97 536.75C757.02 534.66 756.8 534.63 755.89 536.25C754.19 539.26 752 538.36 752 534.67C752 530.38 751.29 529.76 748.5 531.59C746.48 532.92 746.05 532.91 744.68 531.54C742.67 529.53 742.08 529.59 742.65 531.75C743.05 533.28 742.45 533.46 737.8 533.15C734.89 532.95 732.02 532.4 731.43 531.92C730.8 531.41 729.9 531.5 729.27 532.13C727.74 533.66 725.78 529.72 726.55 526.65C727.05 524.67 726.72 524.18 724.63 523.78C723.24 523.51 721.64 523.76 721.07 524.33C720.5 524.9 719.69 525 719.27 524.55C718.84 524.1 719.06 523.53 719.75 523.28C720.44 523.03 721 522.37 721 521.81C721 521.25 720.33 521.05 719.5 521.36C718.48 521.75 718 521.31 718 519.97C718 518.89 717.52 518 716.94 518C716.36 518 716.16 518.45 716.5 518.99C716.86 519.59 715.79 519.88 713.81 519.72C711.32 519.52 710.17 518.76 709.17 516.67C708.14 514.51 707.54 514.14 706.5 515C705.48 515.85 705.02 515.63 704.51 514.04C704.15 512.9 703.48 512.21 703.01 512.49C702.55 512.78 701.98 512.45 701.75 511.76C701.42 510.77 700.97 510.8 699.66 511.87C698.33 512.97 697.7 513 696.5 512C695.3 511.01 694.7 511.01 693.5 512C691.84 513.38 691.42 515.48 693 514.5C693.55 514.16 694 514.36 694 514.94C694 516.69 690.99 516.13 690.29 514.25C689.93 513.29 688.71 511.67 687.57 510.65C685.53 508.84 685.5 508.85 685.21 511.65C684.7 516.61 684.19 517.4 682.44 515.95C681.59 515.25 680.97 513.73 681.06 512.59C681.35 508.82 681.02 508.12 679.05 508.27C677.59 508.38 676.94 509.43 676.43 512.46C676.06 514.68 674.9 518.67 673.86 521.32C672.82 523.98 672.18 526.48 672.43 526.89C672.69 527.3 672.02 528.27 670.95 529.04C668.98 530.45 668.14 532.65 670 531.5C670.55 531.16 671 531.4 671 532.02C671 532.65 670.44 532.98 669.76 532.75C669.08 532.53 666.41 535.12 663.84 538.52C658.05 546.17 650.84 551.99 641.59 556.51C634.15 560.14 624.34 563.06 620.04 562.92C618.64 562.87 621.2 562 625.72 560.97C636.01 558.65 641.53 556.23 649.52 550.52C658.91 543.82 665.99 535.24 670.73 524.8C672.09 521.95 673.24 519.01 674.18 516C675.2 512.7 675.78 510.28 676.11 506.93C677.48 497.32 677.17 484.4 675.36 474.97C674.32 468.88 672.45 463.83 669.28 457.53C667.07 453.12 664.15 448.9 660.71 445.04C653.86 437.05 645.15 431.04 634.76 427.21L627.5 424.54L499 423.92L498.78 493.21C498.59 552.21 498.46 557.53 497.93 529C497.59 510.58 497.26 491.6 497.2 486.84C497.14 482.08 496.64 477.9 496.09 477.56C495.05 476.91 494.85 475.05 494.93 466.36C494.97 460.76 492.97 457.63 490.76 459.84C490.12 460.48 488.11 461 486.3 461C483.53 461 483 461.37 483 463.29C483 464.87 482.37 465.62 480.98 465.73C479.87 465.81 479.23 465.44 479.56 464.9C480.45 463.47 478.08 461 475.82 461C474.75 461 474.14 460.58 474.46 460.07C475.43 458.49 473.01 457.75 471.36 459.12C470.5 459.83 468.5 460.31 466.9 460.19C465.31 460.07 464 460.36 464 460.85C464 463.04 459.07 460.58 457.93 457.82C456.98 455.54 456.22 454.97 454.65 455.38C453.52 455.68 451.93 455.37 451.11 454.71C450.1 453.89 449.84 453.87 450.3 454.65C450.68 455.28 450.33 456.04 449.53 456.35C448.72 456.66 447.76 456.41 447.38 455.8C446.93 455.08 447.15 454.98 448 455.5C448.87 456.04 449.07 455.92 448.6 455.15C448.2 454.52 446.9 453.99 445.69 453.98C444.08 453.97 443.86 453.74 444.86 453.11C447.04 451.72 444.37 450.71 440.46 451.44C438.23 451.86 436.03 451.55 434.08 450.54C430.31 448.59 429 448.59 429 450.56C429 451.42 428.55 451.84 427.99 451.5C427.44 451.15 427.18 449.78 427.43 448.44C427.81 446.3 427.5 446 424.87 446C421.42 446 417.7 444.3 418.46 443.06C419.35 441.63 416.21 439.81 412.67 439.71C409.92 439.63 409.38 439.27 409.76 437.81C410.02 436.81 409.7 436 409.06 436C408.41 436 408.14 435.59 408.45 435.08C408.76 434.57 407.61 433.06 405.88 431.71C403.69 429.99 402.75 428.41 402.75 426.43C402.75 423.89 401.06 421 399.57 421C399.26 421 398.95 422.69 398.88 424.75C398.8 427.35 398.57 427.89 398.13 426.5C397.79 425.4 397.27 475.12 396.99 537L396.49 649.5L396.24 524.43L396 400.58V399.36L399.36 395.43C408.03 385.26 417.15 369.07 420.72 357.51C421.65 354.48 422.75 352 423.17 352C423.59 352 423.68 351.33 423.36 350.5C423.04 349.67 423.33 349 424 349C424.67 349 424.96 348.33 424.64 347.5C424.32 346.67 424.53 346 425.1 346C425.67 346 425.86 345.12 425.51 344.03C425.03 342.53 425.43 341.95 427.19 341.56C431.38 340.64 651 340.47 651 341.39C651 341.87 653.03 341.99 655.5 341.66C658.46 341.25 660 341.41 660 342.13C660 342.84 661.24 342.99 663.5 342.57C665.72 342.15 667 342.3 667 342.97C667 343.61 668.01 343.79 669.5 343.41C671.1 343.01 672 343.2 672 343.96C672 344.68 672.77 344.89 674 344.5C675.2 344.12 676 344.32 676 345C676 345.68 676.8 345.88 678 345.5C679.22 345.11 680 345.32 680 346.04C680 346.69 680.67 346.95 681.5 346.64C682.33 346.32 683 346.55 683 347.14C683 347.73 683.67 347.95 684.5 347.64C685.33 347.32 686 347.55 686 348.14C686 348.73 686.67 348.95 687.5 348.64C688.33 348.32 689 348.55 689 349.14C689 349.73 689.67 349.95 690.5 349.64C691.33 349.32 692 349.48 692 350C692 350.52 692.67 350.68 693.5 350.36C694.33 350.05 695 350.31 695 350.95C695 351.59 695.45 351.84 696 351.5C696.55 351.16 697 351.36 697 351.94C697 352.52 697.34 352.95 697.75 352.88C699.87 352.55 702.01 353.15 703.32 354.47C704.13 355.27 706.64 356.67 708.89 357.57C711.15 358.48 713 359.64 713 360.17C713 360.69 713.38 360.88 713.85 360.59C714.32 360.31 715.65 360.95 716.81 362.03C717.97 363.12 719.39 364 719.96 364C720.53 364 721 364.45 721 365C721 365.55 721.69 366 722.53 366C723.37 366 724.32 366.67 724.64 367.5C724.95 368.33 725.83 369 726.57 369C727.32 369 728.41 369.9 729 371C729.59 372.1 730.59 373 731.23 373C732.3 373 744.34 384.99 749.93 391.62C764.01 408.34 776.26 438.04 779.91 464.34C780.99 472.1 781.28 485.58 780.87 498.01L780.86 498.27C780.84 498.88 780.82 499.48 780.8 500.08C780.49 507.93 779.9 515.2 779.06 520.17L779.05 520.23C779.02 520.35 779 520.48 778.98 520.61V520.64C777.14 531.11 773.08 544.8 769.48 553.97ZM694.21 252.25C694.35 251.98 694.9 250.78 695.61 249.22C697.84 244.61 702.18 235.83 707.13 225.88C709.25 221.63 711.4 217.21 713.49 212.81C719.64 200.32 722.68 193.56 725.65 186.17C725.79 185.81 725.93 185.46 726.07 185.11C729.09 178.03 731 173.01 731 171.85C731 168.71 691.37 223.48 684.29 236.41C683.44 237.96 683.1 236.92 682.51 231.07C680.92 215.23 684.15 197.39 691.22 183C694.69 175.92 697.08 172.82 705.45 164.48C717.07 152.89 725.32 147.08 740 140.15L740.62 139.86C750.31 135.28 753.35 133.85 754.6 134.79C755.2 135.24 755.39 136.24 755.7 137.7C757.08 144.22 756.44 166.87 754.62 176.31C752.31 188.22 748.29 199.37 742.82 209.38C740.59 213.48 738.11 217.38 735.41 221.07C730.55 227.01 721.43 236.33 716.08 240.82C714.73 241.84 713.35 242.82 711.95 243.75C708.11 246.08 701.37 249.77 697.5 251.71C694.28 253.21 693.74 253.19 694.21 252.25ZM598.65 258.19C599.56 259.9 600.13 261.12 600.25 261.65C600.11 261.83 599.72 261.81 599.06 261.63C598.82 261.56 598.55 261.47 598.25 261.38C597.64 261.17 596.9 260.89 596 260.54C594.08 259.79 589.26 257.98 585.3 256.52C572.39 251.76 558.92 241.4 549.4 228.95C546.22 224.59 543.29 219.76 540.53 214.4C540.16 213.7 539.81 212.98 539.46 212.26C533.95 200.61 529.8 187.04 527.99 174.55C527.35 170.07 527.01 165.75 527 161.75V161.38C527 158.16 527 156.29 527.91 155.55C529.18 154.52 532.2 155.64 539.39 158.32L539.99 158.54C579.58 173.29 604.23 200.61 612.07 238.45C613.09 243.38 613.77 247.57 613.57 247.76C613.38 247.96 612.18 246.63 610.9 244.81C602.49 232.8 589.07 217.36 576.04 204.7C567.71 196.62 560.44 190 559.87 190C559.11 190 562.06 195.99 566.85 204.64C571.8 213.59 578.72 225.38 585.54 236.33C586.75 238.3 587.98 240.29 589.22 242.29C592.37 247.36 595.26 252.18 595.65 253C596.03 253.82 597.38 256.14 598.65 258.19ZM597 258.42C597 257.3 589.77 245.49 588.64 244.77C588.01 244.36 587.86 244.02 588.29 244.02C588.72 244.01 588.6 243.44 588.03 242.75C586.04 240.39 582 233.91 582 233.08C582 232.62 581.24 231.63 580.31 230.87C578.86 229.7 578.74 229.71 579.47 230.92C580.11 231.98 579.91 232.18 578.71 231.72C577.58 231.29 577.27 231.53 577.66 232.55C577.99 233.42 577.61 234 576.72 234C574.96 234 573.83 230.57 575.16 229.24C575.73 228.67 575.53 227.86 574.65 227.13C573.48 226.15 573.03 226.49 572.16 228.97C570.93 232.5 570.72 232.57 568.38 230.25C566.71 228.6 566.65 228.6 567.27 230.23C567.7 231.38 567.28 232.31 566.03 232.98C563.21 234.5 561.7 234.23 562.42 232.36C563.31 230.04 560.23 225.56 558.65 226.87C557.99 227.43 556.06 227.84 554.37 227.79C551.72 227.72 551.34 227.37 551.58 225.21C551.83 222.9 551.73 222.84 550.22 224.35C548.71 225.86 548.83 226.23 551.81 229.31C553.58 231.14 554.69 233.01 554.27 233.48C553.85 233.94 554.07 233.99 554.77 233.59C555.46 233.19 555.73 232.33 555.37 231.68C554.92 230.88 555.15 230.91 556.05 231.75C556.79 232.44 557.79 233 558.26 233C558.73 233 558.8 232.44 558.41 231.75C557.86 230.77 557.99 230.76 559.01 231.71C560.05 232.67 560.06 233.22 559.09 234.39C558.18 235.49 558.14 236.4 558.95 237.91C560.05 239.97 564.14 242.77 563.9 241.29C563.5 238.91 564.2 238.05 566.25 238.43C567.49 238.66 568.84 238.88 569.25 238.93C569.66 238.97 569.02 239.98 567.83 241.17L565.65 243.35L568.95 246.1C576.06 252.03 597 261.23 597 258.42ZM700.43 248.43C701.29 247.56 702 247.12 702 247.44C702 248.33 711.71 243.05 713.06 241.43C713.71 240.64 713.88 240 713.44 240C712.99 240 713.91 238.66 715.47 237.03L718.32 234.05L715.16 234.45C713.42 234.67 712 234.41 712 233.87C712 233.33 711.52 233.18 710.93 233.54C710.3 233.93 710 233.49 710.18 232.45C710.36 231.49 709.87 230.49 709.11 230.22C708.15 229.89 707.98 230.16 708.55 231.12C709.21 232.21 708.97 232.19 707.44 231.03C706.37 230.23 705.82 229.94 706.21 230.41C706.6 230.87 705.84 232.66 704.53 234.38C703.21 236.1 701.7 238.63 701.16 240C700.62 241.38 699.45 244.19 698.57 246.25C696.91 250.16 697.73 251.13 700.43 248.43ZM719.28 236.43C721.38 234.48 722.76 232.42 722.38 231.8C721.96 231.13 722.15 230.97 722.84 231.4C724.01 232.13 728.92 227.38 728.95 225.5C728.96 224.95 728.53 225.18 728 226C727.35 227 727.03 227.08 727.02 226.25C727.01 225.56 726.5 225 725.89 225C725.28 225 725.02 225.6 725.3 226.34C725.67 227.31 725.13 227.56 723.41 227.23C722.08 226.97 721 226.38 721 225.91C721 223.99 718.13 226.34 717.52 228.76C717.16 230.2 716.11 231.95 715.18 232.65C713.75 233.73 714.1 233.85 717.5 233.48L721.5 233.04L717.5 236.51C715.3 238.41 713.95 239.96 714.5 239.96C715.05 239.95 717.2 238.36 719.28 236.43ZM713.05 227.91C714.23 225.7 713.58 221 712.09 221C711.07 221 709.82 223.64 709.49 226.5C709.03 230.43 711.23 231.3 713.05 227.91ZM719.83 531.3C719.25 530.6 719.04 529.33 719.37 528.48C719.9 527.09 720.23 527.11 722.48 528.58C723.87 529.49 725 530.76 725 531.4C725 532.97 721.16 532.9 719.83 531.3ZM456.74 465C454.8 462.74 455.49 462.13 459.1 462.93C461.52 463.46 461.59 463.61 460.04 465.22C458.48 466.84 458.3 466.83 456.74 465ZM483.95 458.55C484.83 457.5 484.88 457 484.12 457C483.51 457 483 457.4 483 457.89C483 458.38 482.23 458.72 481.29 458.64C480.35 458.56 479.41 459.32 479.2 460.33C478.88 461.86 479.14 461.99 480.74 461.14C481.8 460.57 483.25 459.41 483.95 458.55ZM743.25 538.34C741.63 537.68 741.65 536.35 743.3 535.72C744.05 535.43 744.65 536.01 744.73 537.11C744.81 538.15 744.79 538.96 744.69 538.92C744.58 538.88 743.94 538.62 743.25 538.34ZM744 527.5C744 526.67 743.4 526 742.67 526C741.93 526 741.33 526.67 741.33 527.5C741.33 528.33 741.93 529 742.67 529C743.4 529 744 528.33 744 527.5ZM423 448.5C423 447.67 423.6 447 424.33 447C425.07 447 425.67 447.67 425.67 448.5C425.67 449.33 425.07 450 424.33 450C423.6 450 423 449.33 423 448.5ZM404.19 438.92C404.39 438.33 404.98 437.85 405.5 437.85C406.02 437.85 406.61 438.33 406.81 438.92C407.01 439.52 406.42 440 405.5 440C404.58 440 403.99 439.52 404.19 438.92ZM694 508.94C694 508.42 693.55 508 693 508C692.45 508 692 508.7 692 509.56C692 510.42 692.45 510.84 693 510.5C693.55 510.16 694 509.46 694 508.94ZM420.5 439C420.16 438.45 419.46 438 418.94 438C418.42 438 418 438.45 418 439C418 439.55 418.7 440 419.56 440C420.42 440 420.84 439.55 420.5 439Z" fill="#49AE67"/>
</g>
<defs>
<clipPath id="clip0_1_18">
<rect width="1024" height="1024" fill="white"/>
</clipPath>
</defs>
</svg>
